<mxfile host="app.diagrams.net" modified="2021-03-18T21:43:34.387Z" agent="5.0 (Windows)" etag="HyljZtcXQDPFWpB-Oot0" version="14.4.9" type="github">
  <diagram id="XoU3Bt1LMFYwkGAeQ--i" name="Page-1">
    <mxGraphModel dx="1422" dy="775" grid="0" gridSize="10" guides="1" tooltips="1" connect="1" arrows="1" fold="1" page="1" pageScale="1" pageWidth="850" pageHeight="1100" math="0" shadow="0">
      <root>
        <mxCell id="0" />
        <mxCell id="1" parent="0" />
        <mxCell id="Ods1NLnsfSLu1C-ozpSz-1" value="Employee" style="rounded=0;whiteSpace=wrap;html=1;" vertex="1" parent="1">
          <mxGeometry x="120" y="240" width="120" height="40" as="geometry" />
        </mxCell>
        <mxCell id="Ods1NLnsfSLu1C-ozpSz-8" value="" style="edgeStyle=orthogonalEdgeStyle;rounded=0;orthogonalLoop=1;jettySize=auto;html=1;endArrow=none;endFill=0;" edge="1" parent="1" source="Ods1NLnsfSLu1C-ozpSz-2" target="Ods1NLnsfSLu1C-ozpSz-5">
          <mxGeometry relative="1" as="geometry" />
        </mxCell>
        <mxCell id="Ods1NLnsfSLu1C-ozpSz-2" value="Activity" style="rounded=0;whiteSpace=wrap;html=1;" vertex="1" parent="1">
          <mxGeometry x="550" y="240" width="120" height="40" as="geometry" />
        </mxCell>
        <mxCell id="Ods1NLnsfSLu1C-ozpSz-3" value="" style="endArrow=none;html=1;exitX=1;exitY=0.5;exitDx=0;exitDy=0;entryX=0;entryY=0.5;entryDx=0;entryDy=0;" edge="1" parent="1" source="Ods1NLnsfSLu1C-ozpSz-1" target="Ods1NLnsfSLu1C-ozpSz-2">
          <mxGeometry width="50" height="50" relative="1" as="geometry">
            <mxPoint x="290" y="330" as="sourcePoint" />
            <mxPoint x="340" y="280" as="targetPoint" />
          </mxGeometry>
        </mxCell>
        <mxCell id="Ods1NLnsfSLu1C-ozpSz-4" value="Project manager" style="rounded=0;whiteSpace=wrap;html=1;" vertex="1" parent="1">
          <mxGeometry x="120" y="400" width="120" height="40" as="geometry" />
        </mxCell>
        <mxCell id="Ods1NLnsfSLu1C-ozpSz-5" value="Project" style="rounded=0;whiteSpace=wrap;html=1;" vertex="1" parent="1">
          <mxGeometry x="550" y="400" width="120" height="40" as="geometry" />
        </mxCell>
        <mxCell id="Ods1NLnsfSLu1C-ozpSz-6" value="" style="endArrow=none;html=1;exitX=1;exitY=0.5;exitDx=0;exitDy=0;entryX=0;entryY=0.5;entryDx=0;entryDy=0;" edge="1" parent="1" target="Ods1NLnsfSLu1C-ozpSz-5">
          <mxGeometry width="50" height="50" relative="1" as="geometry">
            <mxPoint x="240" y="420" as="sourcePoint" />
            <mxPoint x="340" y="360" as="targetPoint" />
          </mxGeometry>
        </mxCell>
        <mxCell id="Ods1NLnsfSLu1C-ozpSz-10" value="Works on ►" style="text;html=1;align=center;verticalAlign=middle;resizable=0;points=[];autosize=1;" vertex="1" parent="1">
          <mxGeometry x="330" y="240" width="80" height="20" as="geometry" />
        </mxCell>
        <mxCell id="Ods1NLnsfSLu1C-ozpSz-11" value="Manages ►" style="text;html=1;align=center;verticalAlign=middle;resizable=0;points=[];autosize=1;" vertex="1" parent="1">
          <mxGeometry x="340" y="400" width="80" height="20" as="geometry" />
        </mxCell>
        <mxCell id="Ods1NLnsfSLu1C-ozpSz-12" value="1..*" style="text;html=1;strokeColor=none;fillColor=none;align=center;verticalAlign=middle;whiteSpace=wrap;rounded=0;" vertex="1" parent="1">
          <mxGeometry x="240" y="260" width="40" height="20" as="geometry" />
        </mxCell>
        <mxCell id="Ods1NLnsfSLu1C-ozpSz-14" value="0..20" style="text;html=1;strokeColor=none;fillColor=none;align=center;verticalAlign=middle;whiteSpace=wrap;rounded=0;" vertex="1" parent="1">
          <mxGeometry x="510" y="260" width="40" height="20" as="geometry" />
        </mxCell>
        <mxCell id="Ods1NLnsfSLu1C-ozpSz-17" value="1..*" style="text;html=1;strokeColor=none;fillColor=none;align=center;verticalAlign=middle;whiteSpace=wrap;rounded=0;" vertex="1" parent="1">
          <mxGeometry x="240" y="420" width="40" height="20" as="geometry" />
        </mxCell>
        <mxCell id="Ods1NLnsfSLu1C-ozpSz-19" value="0..*" style="text;html=1;strokeColor=none;fillColor=none;align=center;verticalAlign=middle;whiteSpace=wrap;rounded=0;" vertex="1" parent="1">
          <mxGeometry x="510" y="420" width="40" height="20" as="geometry" />
        </mxCell>
        <mxCell id="Ods1NLnsfSLu1C-ozpSz-21" value="Time" style="rounded=0;whiteSpace=wrap;html=1;" vertex="1" parent="1">
          <mxGeometry x="550" y="160" width="120" height="40" as="geometry" />
        </mxCell>
        <mxCell id="Ods1NLnsfSLu1C-ozpSz-22" value="" style="endArrow=none;html=1;exitX=0.5;exitY=0;exitDx=0;exitDy=0;entryX=0;entryY=0.5;entryDx=0;entryDy=0;rounded=0;" edge="1" parent="1" source="Ods1NLnsfSLu1C-ozpSz-1" target="Ods1NLnsfSLu1C-ozpSz-21">
          <mxGeometry width="50" height="50" relative="1" as="geometry">
            <mxPoint x="290" y="330" as="sourcePoint" />
            <mxPoint x="340" y="280" as="targetPoint" />
            <Array as="points">
              <mxPoint x="180" y="180" />
            </Array>
          </mxGeometry>
        </mxCell>
        <mxCell id="Ods1NLnsfSLu1C-ozpSz-23" value="1..*" style="text;html=1;strokeColor=none;fillColor=none;align=center;verticalAlign=middle;whiteSpace=wrap;rounded=0;" vertex="1" parent="1">
          <mxGeometry x="170" y="220" width="40" height="20" as="geometry" />
        </mxCell>
        <mxCell id="Ods1NLnsfSLu1C-ozpSz-24" value="1" style="text;html=1;strokeColor=none;fillColor=none;align=center;verticalAlign=middle;whiteSpace=wrap;rounded=0;" vertex="1" parent="1">
          <mxGeometry x="510" y="180" width="40" height="20" as="geometry" />
        </mxCell>
        <mxCell id="Ods1NLnsfSLu1C-ozpSz-25" value="Registers ►" style="text;html=1;align=center;verticalAlign=middle;resizable=0;points=[];autosize=1;" vertex="1" parent="1">
          <mxGeometry x="330" y="160" width="80" height="20" as="geometry" />
        </mxCell>
        <mxCell id="Ods1NLnsfSLu1C-ozpSz-26" value="0..*" style="text;html=1;strokeColor=none;fillColor=none;align=center;verticalAlign=middle;whiteSpace=wrap;rounded=0;" vertex="1" parent="1">
          <mxGeometry x="580" y="280" width="40" height="20" as="geometry" />
        </mxCell>
        <mxCell id="Ods1NLnsfSLu1C-ozpSz-27" value="1" style="text;html=1;strokeColor=none;fillColor=none;align=center;verticalAlign=middle;whiteSpace=wrap;rounded=0;" vertex="1" parent="1">
          <mxGeometry x="580" y="380" width="40" height="20" as="geometry" />
        </mxCell>
        <mxCell id="Ods1NLnsfSLu1C-ozpSz-28" value="Assigned to ►" style="text;html=1;align=center;verticalAlign=middle;resizable=0;points=[];autosize=1;rotation=90;" vertex="1" parent="1">
          <mxGeometry x="580" y="330" width="90" height="20" as="geometry" />
        </mxCell>
        <mxCell id="Ods1NLnsfSLu1C-ozpSz-29" value="Name" style="rounded=0;whiteSpace=wrap;html=1;" vertex="1" parent="1">
          <mxGeometry x="760" y="210" width="120" height="30" as="geometry" />
        </mxCell>
        <mxCell id="Ods1NLnsfSLu1C-ozpSz-30" value="ID" style="rounded=0;whiteSpace=wrap;html=1;" vertex="1" parent="1">
          <mxGeometry x="760" y="250" width="120" height="30" as="geometry" />
        </mxCell>
        <mxCell id="Ods1NLnsfSLu1C-ozpSz-31" value="Description" style="rounded=0;whiteSpace=wrap;html=1;" vertex="1" parent="1">
          <mxGeometry x="760" y="290" width="120" height="30" as="geometry" />
        </mxCell>
        <mxCell id="Ods1NLnsfSLu1C-ozpSz-32" value="" style="endArrow=none;html=1;entryX=0;entryY=0.5;entryDx=0;entryDy=0;exitX=1;exitY=0.5;exitDx=0;exitDy=0;" edge="1" parent="1" source="Ods1NLnsfSLu1C-ozpSz-2" target="Ods1NLnsfSLu1C-ozpSz-29">
          <mxGeometry width="50" height="50" relative="1" as="geometry">
            <mxPoint x="470" y="390" as="sourcePoint" />
            <mxPoint x="520" y="340" as="targetPoint" />
          </mxGeometry>
        </mxCell>
        <mxCell id="Ods1NLnsfSLu1C-ozpSz-33" value="" style="endArrow=none;html=1;exitX=0;exitY=0.5;exitDx=0;exitDy=0;entryX=1;entryY=0.5;entryDx=0;entryDy=0;" edge="1" parent="1" source="Ods1NLnsfSLu1C-ozpSz-30" target="Ods1NLnsfSLu1C-ozpSz-2">
          <mxGeometry width="50" height="50" relative="1" as="geometry">
            <mxPoint x="470" y="390" as="sourcePoint" />
            <mxPoint x="520" y="340" as="targetPoint" />
          </mxGeometry>
        </mxCell>
        <mxCell id="Ods1NLnsfSLu1C-ozpSz-34" value="" style="endArrow=none;html=1;entryX=0;entryY=0.5;entryDx=0;entryDy=0;" edge="1" parent="1" target="Ods1NLnsfSLu1C-ozpSz-31">
          <mxGeometry width="50" height="50" relative="1" as="geometry">
            <mxPoint x="670" y="260" as="sourcePoint" />
            <mxPoint x="520" y="340" as="targetPoint" />
          </mxGeometry>
        </mxCell>
        <mxCell id="Ods1NLnsfSLu1C-ozpSz-35" value="1" style="text;html=1;strokeColor=none;fillColor=none;align=center;verticalAlign=middle;whiteSpace=wrap;rounded=0;" vertex="1" parent="1">
          <mxGeometry x="730" y="220" width="40" height="20" as="geometry" />
        </mxCell>
        <mxCell id="Ods1NLnsfSLu1C-ozpSz-36" value="1" style="text;html=1;strokeColor=none;fillColor=none;align=center;verticalAlign=middle;whiteSpace=wrap;rounded=0;" vertex="1" parent="1">
          <mxGeometry x="730" y="255" width="40" height="20" as="geometry" />
        </mxCell>
        <mxCell id="Ods1NLnsfSLu1C-ozpSz-37" value="1" style="text;html=1;strokeColor=none;fillColor=none;align=center;verticalAlign=middle;whiteSpace=wrap;rounded=0;" vertex="1" parent="1">
          <mxGeometry x="730" y="290" width="40" height="20" as="geometry" />
        </mxCell>
        <mxCell id="Ods1NLnsfSLu1C-ozpSz-38" value="Name" style="rounded=0;whiteSpace=wrap;html=1;" vertex="1" parent="1">
          <mxGeometry x="760" y="365" width="120" height="30" as="geometry" />
        </mxCell>
        <mxCell id="Ods1NLnsfSLu1C-ozpSz-39" value="ID" style="rounded=0;whiteSpace=wrap;html=1;" vertex="1" parent="1">
          <mxGeometry x="760" y="405" width="120" height="30" as="geometry" />
        </mxCell>
        <mxCell id="Ods1NLnsfSLu1C-ozpSz-40" value="Description" style="rounded=0;whiteSpace=wrap;html=1;" vertex="1" parent="1">
          <mxGeometry x="760" y="445" width="120" height="30" as="geometry" />
        </mxCell>
        <mxCell id="Ods1NLnsfSLu1C-ozpSz-42" value="" style="endArrow=none;html=1;entryX=0;entryY=0.5;entryDx=0;entryDy=0;exitX=1;exitY=0.5;exitDx=0;exitDy=0;" edge="1" parent="1">
          <mxGeometry width="50" height="50" relative="1" as="geometry">
            <mxPoint x="670" y="420" as="sourcePoint" />
            <mxPoint x="760" y="385" as="targetPoint" />
          </mxGeometry>
        </mxCell>
        <mxCell id="Ods1NLnsfSLu1C-ozpSz-43" value="" style="endArrow=none;html=1;exitX=0;exitY=0.5;exitDx=0;exitDy=0;entryX=1;entryY=0.5;entryDx=0;entryDy=0;" edge="1" parent="1">
          <mxGeometry width="50" height="50" relative="1" as="geometry">
            <mxPoint x="760" y="425" as="sourcePoint" />
            <mxPoint x="670" y="420" as="targetPoint" />
          </mxGeometry>
        </mxCell>
        <mxCell id="Ods1NLnsfSLu1C-ozpSz-44" value="" style="endArrow=none;html=1;entryX=0;entryY=0.5;entryDx=0;entryDy=0;" edge="1" parent="1">
          <mxGeometry width="50" height="50" relative="1" as="geometry">
            <mxPoint x="670" y="420" as="sourcePoint" />
            <mxPoint x="760" y="465" as="targetPoint" />
          </mxGeometry>
        </mxCell>
        <mxCell id="Ods1NLnsfSLu1C-ozpSz-45" value="1" style="text;html=1;strokeColor=none;fillColor=none;align=center;verticalAlign=middle;whiteSpace=wrap;rounded=0;" vertex="1" parent="1">
          <mxGeometry x="730" y="380" width="40" height="20" as="geometry" />
        </mxCell>
        <mxCell id="Ods1NLnsfSLu1C-ozpSz-46" value="1" style="text;html=1;strokeColor=none;fillColor=none;align=center;verticalAlign=middle;whiteSpace=wrap;rounded=0;" vertex="1" parent="1">
          <mxGeometry x="730" y="415" width="40" height="20" as="geometry" />
        </mxCell>
        <mxCell id="Ods1NLnsfSLu1C-ozpSz-47" value="1" style="text;html=1;strokeColor=none;fillColor=none;align=center;verticalAlign=middle;whiteSpace=wrap;rounded=0;" vertex="1" parent="1">
          <mxGeometry x="730" y="450" width="40" height="20" as="geometry" />
        </mxCell>
      </root>
    </mxGraphModel>
  </diagram>
</mxfile>
